:SAMPLES-PER-SECOND 30
:FULLY-SPECIFIED
:DEGREES
243
root  0.251353 39.6003 27.4858 -176.684 -1.57534 172.797
RightUpLeg  -17.8223 -24.2798 -9.41992
RightLeg  16.2038 -2.5451 2.50591
RightFoot  0.243079 0.0545761 -0.522451
RightToes  1.33877e-009 0 -3.6325e-017
Spine  19.8866 -1.90561 4.61924
Spine1  9.62711 -2.53756 4.02526
HEad  -22.4627 -13.1968 -1.52816
LeftShoulder1  0.230352 2.7982 -26.505
LeftArm  -17.2969 2.91231 -37.3559
LeftForeArm  70.0104 -79.1628 -85.8441
LeftHand  -0.155936 1.18151 4.18548
RightShoulder  -0.165051 -4.08667 20.4662
RightArm  -16.4807 3.07434 39.9528
RightForeArm  111.977 73.246 138.489
RightHand  -0.142362 -0.475154 -3.32764
LeftUpLeg  -15.5408 2.7869 -3.37624
LeftLeg  22.1902 2.68286 1.53287
LeftFoot  -6.29268 0.223959 -4.21082
LeftToes  -1.45701e-009 4.75788e-011 -4.21586e-011
244
root  0.82687 39.6905 27.2772 -177.409 -1.37266 173.797
RightUpLeg  -15.8941 -22.937 -8.36979
RightLeg  15.0728 -3.4799 3.0046
RightFoot  0.104064 0.101819 -1.00745
RightToes  1.33877e-009 0 -3.6325e-017
Spine  18.5638 -1.78452 5.04784
Spine1  10.0503 -2.08815 2.97951
HEad  -21.0582 -13.3326 -0.890036
LeftShoulder1  0.320757 2.49 -25.3848
LeftArm  -16.4028 2.26374 -37.2733
LeftForeArm  67.633 -79.1269 -83.2335
LeftHand  -0.152017 1.22901 4.11663
RightShoulder  -0.289623 -4.50357 21.8637
RightArm  -16.4769 1.51651 39.6254
RightForeArm  111.738 73.214 138.536
RightHand  -0.138942 -0.512799 -3.27004
LeftUpLeg  -13.3035 2.22417 -4.17551
LeftLeg  19.0506 0.971622 0.703141
LeftFoot  -7.59735 0.18801 -4.36479
LeftToes  -1.45701e-009 4.75788e-011 -4.21586e-011
245
root  1.36392 39.6883 27.0967 -178.242 -0.783945 174.819
RightUpLeg  -14.838 -24.4194 -6.59152
RightLeg  15.2633 -1.14011 3.46383
RightFoot  -0.52567 0.0969348 -1.06385
RightToes  1.33877e-009 0 -3.6325e-017
Spine  17.3814 -1.48525 4.08024
Spine1  10.5246 -2.09923 3.54554
HEad  -19.317 -12.6005 -1.35084
LeftShoulder1  0.317286 2.49618 -25.2409
LeftArm  -16.0497 1.83592 -36.7009
LeftForeArm  66.5298 -79.0924 -82.5422
LeftHand  -0.163772 0.978828 4.22733
RightShoulder  -0.311232 -4.56797 22.1374
RightArm  -16.0774 0.351348 39.9931
RightForeArm  111.897 73.2624 138.432
RightHand  -0.152254 -0.59207 -3.63988
LeftUpLeg  -11.0923 1.35286 -4.32532
LeftLeg  16.0955 -1.23333 -0.0770796
LeftFoot  -8.59056 0.135287 -3.4614
LeftToes  -1.45701e-009 4.75788e-011 -4.21586e-011
246
root  1.90411 39.6806 26.9734 -179.109 0.360278 175.636
RightUpLeg  -15.1188 -29.6935 -3.7698
RightLeg  16.9431 5.46056 3.62109
RightFoot  -0.898467 0.106915 -1.23534
RightToes  1.33877e-009 0 -3.6325e-017
Spine  17.027 -1.1887 2.26606
Spine1  10.3987 -2.05679 3.72486
HEad  -18.7591 -11.0975 -0.286557
LeftShoulder1  0.266659 2.6451 -24.8089
LeftArm  -15.8721 1.86517 -36.0408
LeftForeArm  68.0443 -79.1194 -84.333
LeftHand  -0.170118 0.952378 4.37544
RightShoulder  -0.318903 -4.58339 22.4429
RightArm  -15.578 -0.274391 40.6098
RightForeArm  111.633 73.4707 137.822
RightHand  -0.147148 -0.444324 -3.42548
LeftUpLeg  -9.362 -0.402495 -4.0903
LeftLeg  14.0188 -1.83432 -0.0412672
LeftFoot  -7.72493 0.010366 0.860783
LeftToes  -1.45701e-009 4.75788e-011 -4.21586e-011
247
root  2.39094 39.5912 26.9353 179.928 1.68913 176.207
RightUpLeg  -16.6089 -35.6024 -1.58539
RightLeg  21.0926 13.1882 5.15875
RightFoot  -1.14364 -0.0243904 0.172425
RightToes  1.33877e-009 0 -3.6325e-017
Spine  17.0445 -0.981722 -0.0238202
Spine1  10.2087 -2.16366 3.87969
HEad  -17.7598 -9.61783 0.533491
LeftShoulder1  0.200242 2.86365 -25.0256
LeftArm  -16.1717 1.94024 -35.0465
LeftForeArm  70.4451 -79.1399 -87.1246
LeftHand  -0.164339 1.12484 4.34472
RightShoulder  -0.283313 -4.47275 22.0662
RightArm  -15.2011 -0.201859 41.8896
RightForeArm  110.366 73.9407 136.265
RightHand  -0.134842 -0.984896 -3.44533
LeftUpLeg  -8.6203 -0.614783 -3.03396
LeftLeg  14.6503 -0.570717 0.603189
LeftFoot  -6.10813 -0.111341 3.30746
LeftToes  -1.45701e-009 4.75788e-011 -4.21586e-011
248
root  2.85585 39.3304 26.9552 179.088 3.28147 176.234
RightUpLeg  -19.5652 -36.4788 -2.10081
RightLeg  29.5075 16.2775 9.5763
RightFoot  -1.44388 -0.489239 5.6483
RightToes  1.33877e-009 0 -3.6325e-017
Spine  17.1402 -0.74903 -2.99964
Spine1  10.0895 -2.37698 4.09949
HEad  -16.6746 -8.62892 1.94257
LeftShoulder1  0.106432 3.15912 -24.7577
LeftArm  -16.8606 2.57598 -34.4992
LeftForeArm  74.789 -79.1456 -91.6288
LeftHand  -0.123954 1.69708 3.68279
RightShoulder  -0.279042 -4.45858 22.0376
RightArm  -14.5189 0.561903 42.7729
RightForeArm  108.535 74.4626 134.335
RightHand  -0.137692 -0.754745 -3.3828
LeftUpLeg  -9.05058 2.61951 -1.64829
LeftLeg  17.492 -2.4137 -0.422173
LeftFoot  -7.31998 -0.0190627 1.79314
LeftToes  -1.45701e-009 4.75788e-011 -4.21586e-011
249
root  3.34055 39.0279 26.9506 178.306 4.4701 175.608
RightUpLeg  -22.1966 -37.1357 -4.60081
RightLeg  38.7644 20.6761 16.7478
RightFoot  -1.90256 -1.5142 17.8653
RightToes  1.33877e-009 0 -3.6325e-017
Spine  16.9104 -0.495535 -6.05204
Spine1  10.041 -2.36567 3.46156
HEad  -15.9722 -8.36127 3.65218
LeftShoulder1  0.164011 2.96195 -23.967
LeftArm  -17.0828 2.72525 -34.1857
LeftForeArm  76.2042 -79.1188 -93.3441
LeftHand  -0.138116 1.14278 3.66334
RightShoulder  -0.290134 -4.49605 22.0819
RightArm  -14.5087 0.603284 43.6831
RightForeArm  108.15 74.7215 133.412
RightHand  -0.127864 -0.358008 -2.91717
LeftUpLeg  -9.41493 5.34032 -1.12179
LeftLeg  20.2184 -3.90569 -1.28203
LeftFoot  -8.64493 0.0210135 1.3712
LeftToes  -1.45701e-009 4.75788e-011 -4.21586e-011
250
root  3.81202 38.7615 26.9233 177.581 5.70548 175.278
RightUpLeg  -23.4933 -35.2867 -7.80325
RightLeg  46.179 25.6792 25.6061
RightFoot  -1.26576 -2.68999 29.7844
RightToes  1.33877e-009 0 -3.6325e-017
Spine  16.5349 -0.350499 -7.64089
Spine1  10.0238 -2.0446 1.85512
HEad  -14.3765 -8.99887 4.08003
LeftShoulder1  0.100781 3.17447 -24.296
LeftArm  -16.7043 1.77547 -33.4929
LeftForeArm  75.3209 -79.117 -92.6377
LeftHand  -0.125875 0.921972 3.18343
RightShoulder  -0.286342 -4.482 22.0903
RightArm  -14.6476 0.00867422 43.8298
RightForeArm  108.187 74.5995 133.824
RightHand  -0.148453 -0.122901 -3.27511
LeftUpLeg  -9.72444 6.33055 -0.491561
LeftLeg  22.8506 -3.62208 -1.35291
LeftFoot  -9.81536 0.0389896 1.42389
LeftToes  -1.45701e-009 4.75788e-011 -4.21586e-011
251
root  4.33525 38.6518 26.8873 176.969 6.83658 175.922
RightUpLeg  -23.6516 -32.3045 -10.0404
RightLeg  49.4738 27.346 29.7357
RightFoot  -0.811323 -3.12047 32.9127
RightToes  1.33877e-009 0 -3.6325e-017
Spine  16.4338 -0.0657118 -7.5196
Spine1  9.91813 -1.49833 0.742022
HEad  -13.021 -10.2929 4.63544
LeftShoulder1  0.114233 3.13135 -24.4201
LeftArm  -16.1026 1.23888 -33.8742
LeftForeArm  73.936 -79.1353 -91.0545
LeftHand  -0.125259 1.16337 3.29613
RightShoulder  -0.324916 -4.60401 22.4564
RightArm  -15.1119 -0.696846 43.5804
RightForeArm  108.501 74.6182 133.819
RightHand  -0.122092 -0.477462 -2.84997
LeftUpLeg  -9.32128 6.46802 1.26004
LeftLeg  24.1395 -3.114 -1.15457
LeftFoot  -10.69 0.0623746 0.360767
LeftToes  -1.45701e-009 4.75788e-011 -4.21586e-011
252
root  4.86623 38.6854 26.8311 176.398 7.52046 176.995
RightUpLeg  -22.782 -30.0765 -12.3932
RightLeg  47.0298 21.7691 22.9596
RightFoot  -1.52674 -2.51357 28.6039
RightToes  1.33877e-009 0 -3.6325e-017
Spine  16.6855 0.0166302 -7.12988
Spine1  9.68566 -1.5117 0.992786
HEad  -12.5094 -11.3121 4.93884
LeftShoulder1  0.0861396 3.22861 -25.0128
LeftArm  -15.8956 1.41011 -34.2248
LeftForeArm  75.0686 -79.1571 -91.6224
LeftHand  -0.0936258 1.39674 2.54808
RightShoulder  -0.277375 -4.4531 22.0182
RightArm  -15.3032 -1.25792 43.6692
RightForeArm  107.241 74.9345 132.509
RightHand  -0.135079 -0.188494 -3.01236
LeftUpLeg  -8.19723 5.07639 3.28552
LeftLeg  23.9844 -1.71072 -0.424357
LeftFoot  -10.8053 0.0692847 -0.880409
LeftToes  -1.45701e-009 4.75788e-011 -4.21586e-011
253
root  5.42577 38.792 26.7438 176.226 8.18552 178.231
RightUpLeg  -21.0102 -27.1803 -14.5353
RightLeg  41.5088 15.8201 14.293
RightFoot  -1.18356 -2.02345 22.4628
RightToes  1.33877e-009 0 -3.6325e-017
Spine  16.2321 -0.0826233 -6.0339
Spine1  10.0318 -1.45018 0.893142
HEad  -11.9451 -12.5072 5.33436
LeftShoulder1  0.102106 3.17836 -25.1253
LeftArm  -15.7372 1.85701 -34.5588
LeftForeArm  74.5584 -79.1521 -91.2625
LeftHand  -0.111501 1.08615 2.90121
RightShoulder  -0.255672 -4.38173 21.8151
RightArm  -15.2005 -1.49649 43.4121
RightForeArm  105.093 75.26 130.914
RightHand  -0.150758 0.0674689 -3.23505
LeftUpLeg  -7.0289 4.61146 5.55735
LeftLeg  23.0796 -1.11345 -0.0912523
LeftFoot  -10.3705 0.0766823 -1.67845
LeftToes  -1.45701e-009 4.75788e-011 -4.21586e-011
254
root  6.0306 38.9238 26.6539 176.613 8.76037 179.069
RightUpLeg  -19.5513 -23.7199 -16.4639
RightLeg  35.3615 10.6334 7.77566
RightFoot  -0.729545 -1.33915 14.2558
RightToes  1.33877e-009 0 -3.6325e-017
Spine  15.4149 -0.201519 -5.08382
Spine1  10.1954 -1.32324 0.805923
HEad  -10.629 -13.2434 5.61388
LeftShoulder1  0.095213 3.19408 -24.4707
LeftArm  -15.4195 2.42793 -35.1163
LeftForeArm  76.0769 -79.1521 -92.6023
LeftHand  -0.115682 1.46401 3.23375
RightShoulder  -0.346901 -4.67053 22.7179
RightArm  -14.9259 -1.37038 42.695
RightForeArm  103.546 75.5565 129.464
RightHand  -0.154788 0.19904 -3.25876
LeftUpLeg  -6.03811 5.19839 7.54948
LeftLeg  21.2672 -1.55063 -0.201581
LeftFoot  -9.61118 0.0952147 -2.48178
LeftToes  -1.45701e-009 4.75788e-011 -4.21586e-011
